<?xml version="1.0" encoding="utf-8"?>
<!-- Generator: Adobe Illustrator 22.1.0, SVG Export Plug-In . SVG Version: 6.00 Build 0)  -->
<svg version="1.1" id="Camada_1" xmlns="http://www.w3.org/2000/svg" xmlns:xlink="http://www.w3.org/1999/xlink" x="0px" y="0px"
	 viewBox="0 0 164.6 63.3" style="enable-background:new 0 0 164.6 63.3;" xml:space="preserve">
<style type="text/css">
	.st0{fill:#000033;}
</style>
<path class="st0" d="M48.6,47.8h-0.9v2.4h-1.6v-6.7h2.7c0.8,0,1.4,0.2,1.9,0.5c0.5,0.4,0.7,0.9,0.7,1.5c0,0.5-0.1,0.9-0.3,1.2
	c-0.2,0.3-0.5,0.6-0.9,0.8l1.4,2.7v0.1h-1.7L48.6,47.8z M47.7,46.6h1c0.3,0,0.5-0.1,0.7-0.2c0.2-0.2,0.2-0.4,0.2-0.7
	s-0.1-0.5-0.2-0.7c-0.2-0.2-0.4-0.3-0.7-0.3h-1V46.6z M61.7,47.4h-2.6V49h3v1.3h-4.6v-6.7h4.7v1.3h-3v1.4h2.6V47.4z M72.3,47.5h-2.6
	v2.7H68v-6.7h4.5v1.3h-2.9v1.6h2.6V47.5z M83.7,43.5v4.4c0,0.5-0.1,0.9-0.3,1.3c-0.2,0.4-0.5,0.6-0.9,0.8c-0.4,0.2-0.9,0.3-1.4,0.3
	c-0.8,0-1.5-0.2-1.9-0.6c-0.5-0.4-0.7-1-0.7-1.8v-4.4h1.6V48c0,0.7,0.4,1.1,1,1.1c0.3,0,0.6-0.1,0.8-0.3c0.2-0.2,0.3-0.5,0.3-0.9
	v-4.4H83.7z M95.5,49.4c-0.3,0.3-0.6,0.5-1.1,0.7c-0.5,0.2-1,0.3-1.6,0.3c-0.9,0-1.6-0.3-2.1-0.8s-0.8-1.3-0.8-2.3l0-0.6
	c0-0.7,0.1-1.2,0.4-1.7c0.2-0.5,0.6-0.9,1-1.1c0.4-0.3,0.9-0.4,1.5-0.4c0.8,0,1.5,0.2,2,0.6c0.5,0.4,0.7,1,0.8,1.7h-1.6
	c-0.1-0.4-0.2-0.6-0.4-0.8c-0.2-0.2-0.4-0.2-0.8-0.2c-0.4,0-0.7,0.2-0.9,0.5s-0.3,0.8-0.3,1.5V47c0,0.7,0.1,1.2,0.3,1.5
	c0.2,0.3,0.6,0.5,1.1,0.5c0.4,0,0.7-0.1,0.9-0.3v-1h-1.1v-1.1h2.8V49.4z M103.4,50.2h-1.6v-6.7h1.6V50.2z M113.7,49h-2.2l-0.4,1.3
	h-1.7l2.5-6.7h1.5l2.5,6.7h-1.7L113.7,49z M111.8,47.7h1.4l-0.7-2.3L111.8,47.7z M121.5,50.2v-6.7h2.2c0.6,0,1.1,0.1,1.6,0.4
	c0.5,0.3,0.8,0.6,1.1,1.1c0.3,0.5,0.4,1,0.4,1.7V47c0,0.6-0.1,1.2-0.4,1.7c-0.3,0.5-0.6,0.9-1.1,1.1c-0.5,0.3-1,0.4-1.6,0.4H121.5z
	 M123.1,44.7V49h0.6c0.5,0,0.8-0.2,1.1-0.5c0.3-0.3,0.4-0.8,0.4-1.5v-0.3c0-0.7-0.1-1.1-0.4-1.5c-0.2-0.3-0.6-0.5-1.1-0.5H123.1z
	 M138.6,47c0,0.7-0.1,1.2-0.4,1.7s-0.6,0.9-1,1.2c-0.4,0.3-1,0.4-1.5,0.4c-0.6,0-1.1-0.1-1.5-0.4c-0.4-0.3-0.8-0.6-1-1.1
	c-0.2-0.5-0.4-1.1-0.4-1.7v-0.4c0-0.7,0.1-1.2,0.4-1.7c0.2-0.5,0.6-0.9,1-1.2c0.5-0.3,1-0.4,1.5-0.4c0.6,0,1.1,0.1,1.5,0.4
	c0.4,0.3,0.8,0.7,1,1.2c0.2,0.5,0.4,1.1,0.4,1.7V47z M136.9,46.7c0-0.7-0.1-1.2-0.3-1.5c-0.2-0.3-0.5-0.5-1-0.5
	c-0.8,0-1.2,0.6-1.3,1.8l0,0.5c0,0.7,0.1,1.2,0.3,1.5c0.2,0.4,0.5,0.5,1,0.5c0.4,0,0.7-0.2,0.9-0.5c0.2-0.3,0.3-0.9,0.3-1.5V46.7z
	 M148.1,48.4c0-0.2-0.1-0.4-0.3-0.6c-0.2-0.1-0.5-0.3-0.9-0.4c-0.4-0.1-0.8-0.3-1-0.4c-0.9-0.4-1.3-1-1.3-1.8c0-0.4,0.1-0.7,0.3-1
	c0.2-0.3,0.5-0.5,0.9-0.7c0.4-0.2,0.8-0.2,1.3-0.2c0.5,0,0.9,0.1,1.3,0.3c0.4,0.2,0.7,0.4,0.9,0.7c0.2,0.3,0.3,0.7,0.3,1.1h-1.6
	c0-0.3-0.1-0.5-0.3-0.6c-0.2-0.2-0.4-0.2-0.7-0.2c-0.3,0-0.5,0.1-0.7,0.2c-0.2,0.1-0.3,0.3-0.3,0.5c0,0.2,0.1,0.3,0.3,0.5
	c0.2,0.1,0.5,0.3,1,0.4c0.5,0.1,0.8,0.3,1.1,0.5c0.7,0.4,1.1,1,1.1,1.7c0,0.6-0.2,1.1-0.7,1.4c-0.4,0.3-1.1,0.5-1.8,0.5
	c-0.5,0-1-0.1-1.5-0.3c-0.4-0.2-0.8-0.5-1-0.8c-0.2-0.3-0.3-0.7-0.3-1.2h1.6c0,0.4,0.1,0.6,0.3,0.8c0.2,0.2,0.5,0.3,0.9,0.3
	c0.3,0,0.5-0.1,0.6-0.2C148,48.8,148.1,48.6,148.1,48.4z"/>
<g>
	<path class="st0" d="M37.9,11.1c-5.4-0.8-10,1-13.7,5.1c-2.1,2.3-4.2,4.7-6.4,7c-1.1,1.2-2.4,2.2-4,2.7c-2.2,0.6-3.9-0.1-5.1-2
		c-0.4-0.7-0.9-1.4-1.3-2.1c-1-1.4-2.1-2.7-3.2-4c1.7-2.5,4.1-3.3,6.7-1.8c1.4,0.8,2.6,1.8,3.9,2.8c0.7,0.6,1.3,1.2,2,1.9
		c0.5-0.6,1-1.1,1.6-1.7c-1.9-2.1-3.9-3.9-6.3-5.2C7.7,11.6,3.1,13.5,1.3,18c-0.1,0.2,0,0.8,0.2,0.9c2.4,1.7,3.9,4.1,5.3,6.5
		c2.1,3.4,4.4,6.7,7.5,9.1c3.6,2.8,7.6,3.7,11.9,1.7c1.4-0.6,2.7-1.4,3.9-2.4c2.6-2.3,5-4.7,7.5-7.2c0,0,0-0.1,0-0.2
		c-1-0.9-2.1-1-3.1,0c-0.5,0.4-0.9,0.9-1.3,1.3c-1.9,1.7-3.7,3.5-5.7,5c-1.4,1.1-3,1.8-5,2c0.2-0.2,0.3-0.3,0.4-0.4
		c1.8-1.7,3.5-3.3,5.3-5c1.7-1.7,3.3-3.4,4.9-5.1c1.2-1.2,2.7-1.4,4.3-1c0.4,0.1,0.8,0.3,1.3,0.4c1.2,0.3,2.3-0.2,2.9-1.1
		c-4-2.7-7.7-2.6-10.7,0.5c-1.7,1.8-3.3,3.7-5,5.4c-1.7,1.7-3.6,3.3-5.5,4.7c-1.6,1.2-2.8,0.9-4.3-0.4c1.2-0.6,2.7-1.1,3.7-2
		c1.9-1.6,3.7-3.3,5.5-5.1c1.9-1.9,3.7-3.9,5.6-5.7c1.8-1.8,4.2-2.2,6.6-1.6c1.5,0.4,2.9,0.9,4.3,1.5c1.4,0.5,2.6,0.3,3.5-0.8
		c-2.4-1.5-4.8-2.5-7.6-3.1c-3.2-0.6-6,0.1-8.5,2.2c-1.1,0.9-2.2,2-3.2,3.1c-1.9,2-3.7,4.1-5.6,6.1c-1.4,1.4-2.9,2.4-4.8,2.9
		c-1.7,0.4-2.9-0.2-3.8-1.9c3.5,0,6-1.8,8.2-4.3c2-2.2,4-4.4,6-6.6c3.7-4,8.1-5.1,13.2-3.7c2.1,0.6,4.1,1.5,6,2.3
		c1.4,0.6,2.4,0.5,3.6-0.6C45.5,13.3,41.9,11.7,37.9,11.1z"/>
	<path class="st0" d="M6.8,17.8c0,0.7,0.4,1.2,1.1,1.3s1.2-0.3,1.3-1c0.1-0.7-0.4-1.3-1.1-1.4C7.5,16.5,6.9,17.1,6.8,17.8z"/>
</g>
<g>
	<path class="st0" d="M52.5,38.2V26.3L40.6,38.2H30.4l25-25h4.2v25H52.5z"/>
	<path class="st0" d="M68.6,26.3v11.9h-7.2v-25h4.2l11.9,11.9V13.2h7.2v25h-4.2L68.6,26.3z"/>
	<path class="st0" d="M97.2,13.2c3.5,0,6.4,1.2,8.8,3.7c2.4,2.4,3.7,5.4,3.7,8.8s-1.2,6.4-3.7,8.8c-2.4,2.4-5.4,3.7-8.8,3.7H86.4
		v-25H97.2z M97.2,31c1.5,0,2.7-0.5,3.8-1.6c1-1,1.6-2.3,1.6-3.8c0-1.5-0.5-2.7-1.6-3.8c-1-1.1-2.3-1.6-3.8-1.6h-3.6V31H97.2z"/>
	<path class="st0" d="M123.3,38.2c-3.5,0-6.4-1.2-8.8-3.7c-2.4-2.4-3.7-5.4-3.7-8.8s1.2-6.4,3.7-8.8c2.4-2.4,5.4-3.7,8.8-3.7
		c3.5,0,6.4,1.2,8.8,3.7c2.4,2.4,3.7,5.4,3.7,8.8s-1.2,6.4-3.7,8.8C129.7,37,126.7,38.2,123.3,38.2z M123.3,31
		c1.5,0,2.7-0.5,3.8-1.6c1.1-1,1.6-2.3,1.6-3.8c0-1.5-0.5-2.7-1.6-3.8c-1-1.1-2.3-1.6-3.8-1.6c-1.5,0-2.7,0.5-3.8,1.6
		c-1,1-1.6,2.3-1.6,3.8c0,1.5,0.5,2.7,1.6,3.8C120.5,30.5,121.8,31,123.3,31z"/>
	<path class="st0" d="M144.3,29.3v8.9h-7.1v-25h15.2c2.2,0,4.1,0.8,5.7,2.4c1.6,1.6,2.4,3.5,2.4,5.7c0,2.2-0.8,4.1-2.4,5.7
		c-1,1-2.2,1.7-3.6,2.1l9.2,9.2h-10.1l-8.9-8.9H144.3z M144.3,22.9h8c1.9,0,1.6-3.9,0-3.9h-8V22.9z"/>
</g>
</svg>
