<?xml version="1.0" encoding="utf-8"?>
<!-- Generator: Adobe Illustrator 22.1.0, SVG Export Plug-In . SVG Version: 6.00 Build 0)  -->
<svg version="1.1" id="Camada_1" xmlns="http://www.w3.org/2000/svg" xmlns:xlink="http://www.w3.org/1999/xlink" x="0px" y="0px"
	 viewBox="0 0 160 160" style="enable-background:new 0 0 160 160;" xml:space="preserve">
<style type="text/css">
	.st0{fill:#1042AC;}
	.st1{fill:#FFFFFF;}
</style>
<circle class="st0" cx="80.1" cy="79.2" r="79.3"/>
<g>
	<path class="st1" d="M146,59.6c-2.9,3.3-5.7,3.7-9.5,2.5c-5.4-1.9-10.9-3.7-16.5-4.9c-13.8-2.7-25.5,1.2-34.5,12.5
		c-4.9,6.2-9.7,12.5-14.6,18.7c-5.4,7-11.7,12.5-21.2,13c2.5,4.3,6,5.7,10.3,4.3c4.9-1.6,8.9-4.9,12.2-8.7
		c4.9-5.7,9.2-11.7,13.8-17.3c2.5-2.9,5.1-6,7.8-8.7c6-6.2,13.6-8.4,22-7.6c7.4,0.8,14.2,3.3,20.6,6.6c-2.2,3.3-5.1,4.1-9.2,2.7
		c-3.7-1.1-7.8-2.5-11.7-2.9c-6.8-1.1-12.8,0.6-17.3,5.4c-4.9,5.1-8.9,11.1-13.8,16.3c-4.2,5-8.5,9.9-13.5,14.6
		c-2.7,2.5-6.2,4.1-9.5,6c4.1,3.3,7.4,3.7,11.4,0.2c4.9-4.1,9.5-8.9,13.8-13.6c4.3-4.9,8.2-10.3,12.5-15.4
		c7.4-8.7,17.1-9.7,28.4-3.5c-1.4,2.5-4.3,3.7-7.6,3.5c-1.1-0.2-2.2-0.6-3.5-0.8c-4.3-0.8-8.2,0-11.1,3.5
		c-4.1,4.9-7.8,9.7-12.2,14.6c-4.3,4.9-8.7,9.7-13,14.4c-0.2,0.2-0.2,0.6-0.8,1.1c5.1-1.1,9.2-2.9,12.8-6.2
		c4.9-4.6,9.5-9.7,14.2-14.4c1.1-1.1,2.2-2.5,3.3-3.7c2.5-2.7,5.1-2.7,8.2-0.6c0,0.2,0,0.2,0,0.6c-6,6.8-12.2,13.8-18.5,20.6
		c-2.9,2.9-6.2,5.1-9.7,7c-11.1,6-21.6,4.6-31.9-2.2c-8.4-5.7-15.2-13.8-21.4-22.5c-4.3-6.2-8.9-12.2-15.4-16.3
		c-0.6-0.2-1.1-1.6-0.6-2.5c3.7-12.5,15.7-18.5,27.4-13.6c6.7,2.8,12.1,7.4,17.8,12.5c-1.4,1.6-2.5,3.3-3.7,4.9
		c-1.9-1.6-3.7-3.3-5.7-4.6c-3.5-2.5-7-4.9-10.9-6.8c-7.4-3.3-13.6-0.9-17.7,6.2c3.3,3.3,6.2,6.6,9.2,10.1c1.4,1.6,2.7,3.5,4.1,5.1
		c3.5,4.9,8.4,6.2,14.2,4.1c4.3-1.6,7.4-4.6,10.3-7.8c5.1-6.6,10.3-13.3,15.7-19.8C89.9,54.6,101.5,49,116.3,50
		C126.5,51,136.3,54.5,146,59.6z"/>
	<path class="st1" d="M40.8,74.2c-0.2,1.9-1.4,2.9-3.3,2.9s-3.3-1.1-3.3-3.3c0-1.6,1.6-3.3,3.5-3.3C39.5,70.7,41,72.4,40.8,74.2z"/>
</g>
</svg>
